{
  "accessors": [
    {
      "bufferView": 0,
      "componentType": 5125,
      "count": 131994,
      "type": "SCALAR"
    },
    {
      "bufferView": 1,
      "componentType": 5126,
      "count": 29757,
      "max": [
        0.273131757974625,
        1.00000023841858,
        0.229664117097855
      ],
      "min": [
        -0.273131757974625,
        -0.99999988079071,
        -0.229620963335037
      ],
      "type": "VEC3"
    },
    {
      "bufferView": 2,
      "componentType": 5126,
      "count": 29757,
      "type": "VEC3"
    },
    {
      "bufferView": 3,
      "componentType": 5126,
      "count": 29757,
      "type": "VEC2"
    }
  ],
  "asset": {
    "generator": "Substance Painter 2019.3.1",
    "version": "2.0"
  },
  "bufferViews": [
    {
      "buffer": 0,
      "byteLength": 527976,
      "target": 34963
    },
    {
      "buffer": 0,
      "byteLength": 357084,
      "byteOffset": 527976,
      "target": 34962
    },
    {
      "buffer": 0,
      "byteLength": 357084,
      "byteOffset": 885060,
      "target": 34962
    },
    {
      "buffer": 0,
      "byteLength": 238056,
      "byteOffset": 1242144,
      "target": 34962
    }
  ],
  "buffers": [
    {
      "byteLength": 1480200,
      "uri": "gadjet_for_gltf.bin"
    }
  ],
  "images": [
    {
      "uri": "base_baseColor.png"
    },
    {
      "uri": "base_occlusionRoughnessMetallic.png"
    },
    {
      "uri": "base_emissive.png"
    }
  ],
  "materials": [
    {
      "alphaMode": "OPAQUE",
      "emissiveFactor": [
        1.0,
        1.0,
        1.0
      ],
      "emissiveTexture": {
        "index": 2
      },
      "name": "base",
      "occlusionTexture": {
        "index": 1
      },
      "pbrMetallicRoughness": {
        "baseColorTexture": {
          "index": 0
        },
        "metallicRoughnessTexture": {
          "index": 1
        }
      }
    }
  ],
  "meshes": [
    {
      "name": "[definitive]_001_-_bottom_button_+_logoSurface16.001_[definitive]_001_-_bottom_button_+_logoSurface16.002",
      "primitives": [
        {
          "attributes": {
            "NORMAL": 2,
            "POSITION": 1,
            "TEXCOORD_0": 3
          },
          "indices": 0,
          "material": 0,
          "mode": 4
        }
      ]
    }
  ],
  "nodes": [
    {
      "children": [
        1
      ],
      "name": "gadjet_low.obj",
      "scale": [
        68.764289855957,
        68.764289855957,
        68.764289855957
      ],
      "translation": [
        0.0,
        69.1211090087891,
        15.7504796981812
      ]
    },
    {
      "children": [
        2
      ],
      "name": "[definitive]_001_-_bottom_button_+_logoSurface16.001_[definitive]_001_-_bottom_button_+_logoSurface16.002"
    },
    {
      "mesh": 0,
      "name": "[definitive]_001_-_bottom_button_+_logoSurface16.001_[definitive]_001_-_bottom_button_+_logoSurface16.002"
    }
  ],
  "samplers": [
    {
      "magFilter": 9729,
      "minFilter": 9985,
      "wrapS": 10497,
      "wrapT": 10497
    }
  ],
  "scene": 0,
  "scenes": [
    {
      "name": "Scene",
      "nodes": [
        0
      ]
    }
  ],
  "textures": [
    {
      "sampler": 0,
      "source": 0
    },
    {
      "sampler": 0,
      "source": 1
    },
    {
      "sampler": 0,
      "source": 2
    }
  ]
}