<svg width="18" height="20" xmlns="http://www.w3.org/2000/svg"><path d="M12.404 2.5c0 1.38-1.075 2.5-2.4 2.5-1.326 0-2.401-1.12-2.401-2.5S8.678 0 10.003 0c1.326 0 2.401 1.12 2.401 2.5m4.8 3.214c0 1.184-.92 2.143-2.057 2.143-1.136 0-2.057-.96-2.057-2.143 0-1.184.92-2.143 2.057-2.143s2.058.96 2.058 2.143m.686 6.071c0 .987-.768 1.786-1.715 1.786-.947 0-1.714-.8-1.714-1.786S15.229 10 16.176 10s1.715.8 1.715 1.785m-3.43 5.358c0 .79-.613 1.428-1.371 1.428s-1.372-.639-1.372-1.428c0-.79.614-1.429 1.372-1.429.758 0 1.372.64 1.372 1.429m-6.173 1.428c0 .79-.614 1.429-1.371 1.429-.758 0-1.372-.64-1.372-1.429 0-.79.614-1.428 1.372-1.428.757 0 1.371.639 1.371 1.428m-5.487-3.928c0 1.428-2.057 1.428-2.057 0 0-1.429 2.057-1.429 2.057 0M1.431 8.571c0 .952-1.371.952-1.371 0s1.37-.952 1.37 0m3.43-5c0 .952-1.372.952-1.372 0s1.372-.952 1.372 0" fill="#015db9" fill-rule="evenodd"/></svg>