<svg id="logo" xmlns="http://www.w3.org/2000/svg" width="32.969" height="32.969" viewBox="0 0 32.969 32.969">
  <path id="Path_46" data-name="Path 46" d="M23.87,0H9.1A9.108,9.108,0,0,0,0,9.1V23.871a9.108,9.108,0,0,0,9.1,9.1H23.87a9.109,9.109,0,0,0,9.1-9.1V9.1A9.108,9.108,0,0,0,23.87,0Zm6.173,23.871a6.18,6.18,0,0,1-6.173,6.173H9.1a6.18,6.18,0,0,1-6.173-6.173V9.1A6.18,6.18,0,0,1,9.1,2.925H23.87A6.18,6.18,0,0,1,30.044,9.1V23.871Z" fill="#015db9"/>
  <path id="Path_47" data-name="Path 47" d="M49.463,40.97a8.5,8.5,0,1,0,8.5,8.5A8.5,8.5,0,0,0,49.463,40.97Zm0,14.065a5.57,5.57,0,1,1,5.57-5.57A5.576,5.576,0,0,1,49.463,55.035Z" transform="translate(-32.979 -32.98)" fill="#015db9"/>
  <path id="Path_48" data-name="Path 48" d="M121.066,28.251a2.144,2.144,0,1,0,1.517.628A2.154,2.154,0,0,0,121.066,28.251Z" transform="translate(-95.73 -22.742)" fill="#015db9"/>
</svg>
